<?xml version="1.0" encoding="UTF-8" standalone="no"?>
<!-- Generator: Adobe Illustrator 17.1.0, SVG Export Plug-In . SVG Version: 6.00 Build 0)  -->

<svg
   xmlns:dc="http://purl.org/dc/elements/1.1/"
   xmlns:cc="http://creativecommons.org/ns#"
   xmlns:rdf="http://www.w3.org/1999/02/22-rdf-syntax-ns#"
   xmlns:svg="http://www.w3.org/2000/svg"
   xmlns="http://www.w3.org/2000/svg"
   xmlns:sodipodi="http://sodipodi.sourceforge.net/DTD/sodipodi-0.dtd"
   xmlns:inkscape="http://www.inkscape.org/namespaces/inkscape"
   version="1.1"
   id="binders"
   x="0px"
   y="0px"
   viewBox="0 0 1010 887.6953"
   enable-background="new 0 0 1010 887.6953"
   xml:space="preserve"
   inkscape:version="0.91 r13725"
   sodipodi:docname="binders.svg"><metadata
     id="metadata28"><rdf:RDF><cc:Work
         rdf:about=""><dc:format>image/svg+xml</dc:format><dc:type
           rdf:resource="http://purl.org/dc/dcmitype/StillImage" /></cc:Work></rdf:RDF></metadata><defs
     id="defs26" /><sodipodi:namedview
     pagecolor="#ffffff"
     bordercolor="#666666"
     borderopacity="1"
     objecttolerance="10"
     gridtolerance="10"
     guidetolerance="10"
     inkscape:pageopacity="0"
     inkscape:pageshadow="2"
     inkscape:window-width="1366"
     inkscape:window-height="705"
     id="namedview24"
     showgrid="false"
     inkscape:zoom="0.26585699"
     inkscape:cx="-27.241045"
     inkscape:cy="443.84766"
     inkscape:window-x="0"
     inkscape:window-y="30"
     inkscape:window-maximized="1"
     inkscape:current-layer="binders" /><g
     id="binders-binders"
     style="fill:#ec7474;fill-opacity:1"><path
       d="M0,887.6953h302.9507V0H0V887.6953z M45.6177,45.6181h211.6909v796.46H45.6177V45.6181z"
       id="path4"
       fill="#1A1A1A"
       style="fill:#ec7474;fill-opacity:1" /><path
       d="M151.4507,634.1103c-34.8423,0-63.1499,28.3076-63.1499,63.1006c0,34.8419,28.3076,63.125,63.1499,63.125   c34.7925,0,63.1001-28.2831,63.1001-63.125C214.5508,662.4179,186.2432,634.1103,151.4507,634.1103z M151.4507,727.6143   c-16.7676,0-30.4038-13.6113-30.4038-30.4034c0-16.7432,13.6362-30.3545,30.4038-30.3545s30.354,13.6113,30.354,30.3545   C181.8047,714.0029,168.2183,727.6143,151.4507,727.6143z"
       id="path6"
       fill="#1A1A1A"
       style="fill:#ec7474;fill-opacity:1" /><rect
       x="125.4116"
       y="120.2335"
       width="52.103"
       height="374.2871"
       id="rect8"
       fill="#1A1A1A"
       style="fill:#ec7474;fill-opacity:1" /><path
       d="M353.5493,887.6953h302.9019V0H353.5493V887.6953z M399.1914,45.6181h211.6172v101.2461H399.1914V45.6181z    M399.1914,192.4824h211.6172v118.1123H399.1914V192.4824z M399.1914,356.2129h211.6172v485.8652H399.1914V356.2129z"
       id="path10"
       fill="#1A1A1A"
       style="fill:#ec7474;fill-opacity:1" /><path
       d="M505,634.1103c-34.8174,0-63.125,28.3076-63.125,63.1006c0,34.8419,28.3076,63.1494,63.125,63.1494   s63.125-28.3076,63.125-63.1494C568.125,662.4179,539.8174,634.1103,505,634.1103z M505,727.6143   c-16.7676,0-30.4033-13.6113-30.4033-30.4034c0-16.7432,13.6357-30.3545,30.4033-30.3545c16.792,0,30.3789,13.6113,30.3789,30.3545   C535.3789,714.0029,521.792,727.6143,505,727.6143z"
       id="path12"
       fill="#1A1A1A"
       style="fill:#ec7474;fill-opacity:1" /><path
       d="M707.0742,0v887.6953H1010V0H707.0742z M964.3828,842.0781h-211.666v-796.46h211.666V842.0781z"
       id="path14"
       fill="#1A1A1A"
       style="fill:#ec7474;fill-opacity:1" /><path
       d="M858.5488,760.3359c34.8184,0,63.125-28.2831,63.125-63.125c0-34.793-28.3066-63.1006-63.125-63.1006   c-34.8164,0-63.125,28.3076-63.125,63.1006C795.4238,732.0527,823.7324,760.3359,858.5488,760.3359z M858.5488,666.8564   c16.7676,0,30.3789,13.6113,30.3789,30.3545c0,16.7921-13.6113,30.4034-30.3789,30.4034   c-16.7675,0-30.3789-13.6113-30.3789-30.4034C828.1699,680.4677,841.7813,666.8564,858.5488,666.8564z"
       id="path16"
       fill="#1A1A1A"
       style="fill:#ec7474;fill-opacity:1" /><rect
       x="788.3477"
       y="144.2261"
       width="140.3789"
       height="45.5932"
       id="rect18"
       fill="#1A1A1A"
       style="fill:#ec7474;fill-opacity:1" /><rect
       x="788.3477"
       y="261.1552"
       width="140.3789"
       height="45.6177"
       id="rect20"
       fill="#1A1A1A"
       style="fill:#ec7474;fill-opacity:1" /><rect
       x="788.3477"
       y="378.1338"
       width="140.3789"
       height="45.6176"
       id="rect22"
       fill="#1A1A1A"
       style="fill:#ec7474;fill-opacity:1" /></g></svg>