<?xml version="1.0" encoding="UTF-8" standalone="no"?>
<!-- Generator: Adobe Illustrator 19.1.0, SVG Export Plug-In . SVG Version: 6.00 Build 0)  -->

<svg
   xmlns:dc="http://purl.org/dc/elements/1.1/"
   xmlns:cc="http://creativecommons.org/ns#"
   xmlns:rdf="http://www.w3.org/1999/02/22-rdf-syntax-ns#"
   xmlns:svg="http://www.w3.org/2000/svg"
   xmlns="http://www.w3.org/2000/svg"
   xmlns:sodipodi="http://sodipodi.sourceforge.net/DTD/sodipodi-0.dtd"
   xmlns:inkscape="http://www.inkscape.org/namespaces/inkscape"
   version="1.1"
   id="Capa_1"
   x="0px"
   y="0px"
   viewBox="0 0 38.519 38.519"
   style="enable-background:new 0 0 38.519 38.519;"
   xml:space="preserve"
   width="512px"
   height="512px"
   inkscape:version="0.91 r13725"
   sodipodi:docname="play.svg"><metadata
     id="metadata42"><rdf:RDF><cc:Work
         rdf:about=""><dc:format>image/svg+xml</dc:format><dc:type
           rdf:resource="http://purl.org/dc/dcmitype/StillImage" /></cc:Work></rdf:RDF></metadata><defs
     id="defs40" /><sodipodi:namedview
     pagecolor="#ffffff"
     bordercolor="#666666"
     borderopacity="1"
     objecttolerance="10"
     gridtolerance="10"
     guidetolerance="10"
     inkscape:pageopacity="0"
     inkscape:pageshadow="2"
     inkscape:window-width="1366"
     inkscape:window-height="705"
     id="namedview38"
     showgrid="false"
     inkscape:zoom="0.4609375"
     inkscape:cx="256"
     inkscape:cy="256"
     inkscape:window-x="0"
     inkscape:window-y="30"
     inkscape:window-maximized="1"
     inkscape:current-layer="Capa_1" /><g
     id="Play_1_"
     style="fill:#ffffff"><path
       d="M19.259,38.519C8.64,38.519,0,29.879,0,19.26C0,8.64,8.64,0,19.259,0c10.62,0,19.26,8.64,19.26,19.26   C38.519,29.879,29.879,38.519,19.259,38.519z M19.259,0.801c-10.178,0-18.458,8.28-18.458,18.459   c0,10.178,8.28,18.458,18.458,18.458c10.179,0,18.459-8.28,18.459-18.458C37.718,9.081,29.438,0.801,19.259,0.801z"
       fill="#FFFFFF"
       id="path4"
       style="fill:#ffffff" /><path
       d="M14.66,28.79c-0.135,0-0.271-0.034-0.393-0.102c-0.262-0.143-0.425-0.418-0.425-0.716V10.546   c0-0.298,0.163-0.572,0.425-0.716c0.262-0.145,0.582-0.132,0.831,0.027l13.692,8.72c0.236,0.15,0.378,0.408,0.378,0.688   s-0.142,0.538-0.377,0.688l-13.693,8.708C14.965,28.747,14.812,28.79,14.66,28.79z M14.669,10.531l-0.025,0.015v17.427   l13.718-8.693L14.669,10.531z"
       fill="#FFFFFF"
       id="path6"
       style="fill:#ffffff" /></g><g
     id="g8" /><g
     id="g10" /><g
     id="g12" /><g
     id="g14" /><g
     id="g16" /><g
     id="g18" /><g
     id="g20" /><g
     id="g22" /><g
     id="g24" /><g
     id="g26" /><g
     id="g28" /><g
     id="g30" /><g
     id="g32" /><g
     id="g34" /><g
     id="g36" /><path
     style="fill:#ffffff"
     d="m 195.25424,256.00664 0,-114.11658 7.05084,4.20526 c 5.54783,3.30883 170.74657,108.64599 172.33223,109.88575 0.3129,0.24464 -120.21865,76.99646 -169.87412,108.17207 l -9.50895,5.97008 0,-114.11658 z"
     id="path3374"
     inkscape:connector-curvature="0"
     transform="scale(0.07523243,0.07523243)" /></svg>